<svg id="Layer_1" data-name="Layer 1" xmlns="http://www.w3.org/2000/svg" viewBox="0 0 1001.56 428.54"><defs><style>.cls-1{fill:#3c78d8;}.cls-2{font-size:14px;fill:#fff;font-family:Puritan-Bold, Puritan;font-weight:700;}.cls-3{fill:none;stroke:#3c78d8;stroke-miterlimit:10;stroke-width:2px;}</style></defs><title>armenian_graph</title><rect class="cls-1" x="767.96" y="190.43" width="59.78" height="29.6"/><ellipse class="cls-1" cx="767.96" cy="205.24" rx="4.3" ry="4.52"/><ellipse class="cls-1" cx="827.75" cy="205.24" rx="4.3" ry="4.52"/><text class="cls-2" transform="translate(775.24 203.2)">ITALIAN <tspan x="-2.03" y="13">FASCISM</tspan></text><rect class="cls-1" x="703.63" y="190.43" width="48.59" height="29.6"/><ellipse class="cls-1" cx="703.43" cy="205.24" rx="4.3" ry="4.52"/><ellipse class="cls-1" cx="752.22" cy="205.24" rx="4.3" ry="4.52"/><text class="cls-2" transform="translate(707.5 203.2)">SOVIET <tspan x="9.3" y="13">ERA</tspan></text><rect class="cls-1" x="844.77" y="190.43" width="67.58" height="29.6"/><ellipse class="cls-1" cx="844.69" cy="205.24" rx="4.3" ry="4.52"/><ellipse class="cls-1" cx="912.27" cy="205.24" rx="4.3" ry="4.52"/><text class="cls-2" transform="translate(848.46 203.2)">OTTOMAN <tspan x="9.39" y="13">EMPIRE</tspan></text><rect class="cls-1" x="73.06" y="190.43" width="59.78" height="29.6"/><ellipse class="cls-1" cx="73.06" cy="205.24" rx="4.3" ry="4.52"/><ellipse class="cls-1" cx="132.85" cy="205.24" rx="4.3" ry="4.52"/><text class="cls-2" transform="translate(76.53 203.2)">MAGICAL <tspan x="1.88" y="13">REALISM</tspan></text><rect class="cls-1" x="247.19" y="190.43" width="67.58" height="29.6"/><ellipse class="cls-1" cx="247.12" cy="205.24" rx="4.3" ry="4.52"/><ellipse class="cls-1" cx="314.7" cy="205.24" rx="4.3" ry="4.52"/><text class="cls-2" transform="translate(250.89 203.2)">OTTOMAN <tspan x="18.72" y="13">ART</tspan></text><rect class="cls-1" x="147.7" y="190.43" width="84.78" height="29.6"/><ellipse class="cls-1" cx="147.7" cy="205.24" rx="4.3" ry="4.52"/><ellipse class="cls-1" cx="232.48" cy="205.24" rx="4.3" ry="4.52"/><text class="cls-2" transform="translate(166.41 203.2)">ITALIAN <tspan x="-15.46" y="13">RENAISSANCE</tspan></text><rect class="cls-1" x="357.78" y="190.43" width="82.67" height="29.6"/><ellipse class="cls-1" cx="357.67" cy="205.24" rx="4.3" ry="4.52"/><ellipse class="cls-1" cx="440.45" cy="205.24" rx="4.3" ry="4.52"/><text class="cls-2" transform="translate(368.76 203.2)">100 YEARS <tspan x="-7.79" y="13">OF SOLITUDE</tspan></text><rect class="cls-1" x="455.56" y="190.43" width="82.67" height="29.6"/><ellipse class="cls-1" cx="455.45" cy="205.24" rx="4.3" ry="4.52"/><ellipse class="cls-1" cx="538.24" cy="205.24" rx="4.3" ry="4.52"/><text class="cls-2" transform="translate(478.65 203.2)">GREEK <tspan x="-19.01" y="13">MYTHOLOGY</tspan></text><rect class="cls-1" x="553.24" y="190.43" width="104.78" height="29.6"/><ellipse class="cls-1" cx="553.24" cy="205.24" rx="4.3" ry="4.52"/><ellipse class="cls-1" cx="658.03" cy="205.24" rx="4.3" ry="4.52"/><text class="cls-2" transform="translate(556.5 203.2)">THE ARCHITECT’S <tspan x="14.85" y="13">APPRENTICE</tspan></text><rect class="cls-1" x="303.26" y="57.31" width="82.16" height="14.86"/><ellipse class="cls-1" cx="303.66" cy="64.74" rx="4.3" ry="4.52"/><ellipse class="cls-1" cx="385.42" cy="64.74" rx="4.3" ry="4.52"/><text class="cls-2" transform="translate(306.69 69.49)">ART HISTORY</text><rect class="cls-1" x="445.73" y="57.31" width="77.78" height="14.86"/><ellipse class="cls-1" cx="445.73" cy="64.74" rx="4.3" ry="4.52"/><ellipse class="cls-1" cx="523.51" cy="64.74" rx="4.3" ry="4.52"/><text class="cls-2" transform="translate(449.9 69.49)">LITERATURE</text><rect class="cls-1" x="571.3" y="57.31" width="106.79" height="14.86"/><ellipse class="cls-1" cx="571.3" cy="64.74" rx="4.3" ry="4.52"/><ellipse class="cls-1" cx="678.1" cy="64.74" rx="4.3" ry="4.52"/><text class="cls-2" transform="translate(574.83 69.49)">HISTORICAL ERAS</text><rect class="cls-1" x="435.92" y="366.86" width="91.76" height="14.86"/><ellipse class="cls-1" cx="435.92" cy="374.3" rx="4.3" ry="4.52"/><ellipse class="cls-1" cx="527.67" cy="374.3" rx="4.3" ry="4.52"/><text class="cls-2" transform="translate(439.3 379.05)">ANCIENT GODS</text><rect class="cls-1" x="294.87" y="366.86" width="111.79" height="14.86"/><ellipse class="cls-1" cx="295.18" cy="374.3" rx="4.3" ry="4.52"/><ellipse class="cls-1" cx="406.67" cy="374.3" rx="4.3" ry="4.52"/><text class="cls-2" transform="translate(298.28 379.05)">NAZAR THE BRAVE</text><rect class="cls-1" x="554.75" y="366.86" width="131.83" height="14.86"/><ellipse class="cls-1" cx="554.75" cy="374.3" rx="4.3" ry="4.52"/><ellipse class="cls-1" cx="686.58" cy="374.3" rx="4.3" ry="4.52"/><text class="cls-2" transform="translate(557.77 379.05)">HONORABLE BEGGARS</text><path class="cls-3" d="M98.51,191a73.94,73.94,0,0,1,10.92-28.3c12.3-18.78,30.13-26.37,41.44-31,30.18-12.37,62.18-10.47,78.74-9.48,1.69.1,9.71.61,20.47.36a133.66,133.66,0,0,0,21.62-1.74,85.39,85.39,0,0,0,21.2-6.17c6.17-2.78,24.88-11.24,32.76-30.57a47.62,47.62,0,0,0,3.23-12.86"/><path class="cls-3" d="M188.27,191.81A41.3,41.3,0,0,1,194,174.2c1.48-2.43,6.62-10.3,20.85-17.44,9.39-4.71,15.1-5.27,30.85-8.71,20.64-4.51,32.17-7,45.84-12.7,9.95-4.13,19.65-8.27,29.35-17.7A69.82,69.82,0,0,0,336,96.08a68.8,68.8,0,0,0,5.78-23.91"/><path class="cls-3" d="M277.57,192.27a41.88,41.88,0,0,1,2.92-11.59c7.79-18.81,24.58-18.86,44.2-36.69A101.25,101.25,0,0,0,352,101.31a94.92,94.92,0,0,0,4.44-29.66"/><path class="cls-3" d="M471.15,71a90.33,90.33,0,0,1-2.34,18.48c-2,8.76-7.88,33.74-27.34,45.85-2.16,1.35-9.17,4.73-23.17,11.5-6.11,2.95-9.73,4.64-13.83,8.47a38.54,38.54,0,0,0-11.23,37"/><path class="cls-3" d="M481.73,72.17c0,2.86,0,7.5.28,13.19,1.64,31.29,9.39,46,13.59,75.71A244.45,244.45,0,0,1,498,192.54"/><path class="cls-3" d="M491.59,71.65a93.42,93.42,0,0,0,1.13,10.53c.71,4.31,2.12,12.8,6.22,21.26,5.73,11.82,14.34,18.62,19,22.25,7.6,5.88,14.19,8.54,27.06,13.63,21.42,8.47,27.94,7.85,41.33,16.48,9.19,5.92,12.58,10.37,14.61,14.19a35.39,35.39,0,0,1,3.45,21.31"/><path class="cls-3" d="M606.58,71.38a79.09,79.09,0,0,0,14.79,34.83c12.35,16.23,28.27,23.73,36.65,27.64,12.2,5.68,14.11,3.91,32.18,12,19.92,8.88,25,14.34,26.62,16.16,8.8,10,10.91,21.83,11.52,28.47"/><path class="cls-3" d="M618.49,70.8A46.6,46.6,0,0,0,620.31,78a57.18,57.18,0,0,0,12.06,19.07c13.2,13.67,36.54,21.61,43.57,23.86,15.41,4.95,28.75,7.23,50.5,11,17.35,3,23.19,3.28,33.6,7.52,9.85,4,20.83,8.66,28.76,20,8.28,11.85,8.81,24.69,8.59,31"/><path class="cls-3" d="M632.74,71.47a54.62,54.62,0,0,0,9.58,13.35c11.9,12.13,26.88,15.61,43.66,18.46,23.19,3.94,36.44,4.38,54.68,6.11,36.13,3.42,63.11,9.15,87.72,18.26,11.57,4.28,24.06,9.85,34.19,21.79a67.13,67.13,0,0,1,12.82,23.5A63.34,63.34,0,0,1,878,191.54"/><path class="cls-3" d="M97.2,220a97.44,97.44,0,0,0,11.74,27.79c14.82,23.79,36.29,34.64,52.05,42.35,26.15,12.8,49.77,16.92,66.85,19.77,22.68,3.79,39.8,3.93,64.43,13.84,8.24,3.32,17.61,7.85,25.44,17.37a56.47,56.47,0,0,1,11.68,25.71"/><path class="cls-3" d="M186.56,220A49.72,49.72,0,0,0,195,238.4c7.54,10.11,18.12,16.15,37.21,21.4,21,5.78,35.58,7.15,56.29,9.77,3.62.46,31.2,4,59.08,8.84,32.56,5.68,49.14,8.69,63.48,16.5,9.77,5.32,25.79,14.32,37.11,33.37a84.14,84.14,0,0,1,11.48,38.59"/><path class="cls-3" d="M276.79,220a31.55,31.55,0,0,0,4.89,13.06c4.82,7.21,12.16,11.15,26.77,15.47,16.78,5,30,6.54,46.27,8.59,11.52,1.45,23,3.19,34.55,4.48,67.63,7.58,117.25,22.7,131.29,27.15,13.24,4.2,30.25,10.14,46.93,24.18,16.16,13.6,20.76,25.32,22.32,30a58.84,58.84,0,0,1,2.67,23.88"/><path class="cls-3" d="M397.84,220a62.71,62.71,0,0,1-.19,19.8c-2.26,13.15-8.29,22.29-14.51,31.53-8.8,13.06-11.24,12.12-20.22,25.22-3.85,5.62-10.17,14.84-14.62,27.07a97.86,97.86,0,0,0-5.14,43.21"/><path class="cls-3" d="M496.39,218.07a214,214,0,0,1-8,54.68c-3.79,13.23-8.21,23.41-12.22,43.92a215.53,215.53,0,0,0-3.67,27.38,209,209,0,0,0-.18,25.23"/><path class="cls-3" d="M729.08,219.57a98.32,98.32,0,0,1-5.88,21.51s-10.2,25.11-36.38,44.2C643.2,317.08,546,320.17,525.46,320.69,409.24,323.6,386.61,324.81,372,341.51c-4.34,5-9.77,13.4-11.88,27.78"/><path class="cls-3" d="M796.86,220a77.33,77.33,0,0,1-3.79,15.87c-17.66,49.79-83.49,69-111.73,77.21a336.61,336.61,0,0,1-60.15,11.51c-22.31,2.21-52.3,2.93-93,9-11.08,1.64-27.09,4.29-37,17.15a40.44,40.44,0,0,0-7.7,18.56"/><path class="cls-3" d="M877.88,218.15a97,97,0,0,1-4.11,19.15A103.81,103.81,0,0,1,858.83,266c-12.75,17.2-28.6,25.57-39.92,31.39C808.77,302.6,793.84,306.74,764,315c-16.16,4.49-28.59,7.38-39.06,9.61,0,0-11,2.33-22,4.22-27.87,4.79-57.36,6.35-68.68,17.43a38.48,38.48,0,0,0-5.21,6.52,35.35,35.35,0,0,0-5,15.82"/><path class="cls-3" d="M601.61,218.9a126.28,126.28,0,0,0-2.23,15.41,92.3,92.3,0,0,0-.1,18.62c.58,5.44,1.29,11.94,4.6,19.46,1.82,4.13,3.55,6.58,7.29,15.06.81,1.84,1.8,4,2.56,6.07a75.93,75.93,0,0,1,5,24.67c.16,6.51-.77,11.47-2.64,21.15a294.93,294.93,0,0,1-7.1,28.8"/></svg>